<svg xmlns="http://www.w3.org/2000/svg" viewBox="0 0 481.12 275.94"><defs><style>.cls-1{fill:#404040;}.cls-2{fill:#e5e4e4;}.cls-3{fill:#e0e0e0;}.cls-4{fill:#e28556;}.cls-5{fill:#565367;}.cls-6{opacity:0.5;}.cls-7{font-size:12px;fill:#c2c1c1;font-family:BebasNeue-Regular, Bebas Neue;}.cls-8{fill:#b8346f;}.cls-9{fill:#2478b6;}.cls-10{fill:#471c1c;}.cls-11{fill:#df94a9;}.cls-12{fill:#f2c5c3;}.cls-13{fill:#f8e0df;}.cls-14{fill:#bdbee1;}.cls-15{fill:#e8ebf7;}.cls-16{fill:#fff;}</style></defs><g id="Capa_2" data-name="Capa 2"><g id="Capa_1-2" data-name="Capa 1"><g id="Ordenador"><path class="cls-1" d="M408.43,4.74V197.48H72.7V4.74A4.74,4.74,0,0,1,77.44,0H403.69A4.74,4.74,0,0,1,408.43,4.74Z"/><rect class="cls-1" x="166.94" y="252.69" width="147.24" height="5.23"/><polygon class="cls-1" points="266.72 252.69 214.4 252.69 225.35 217.62 255.77 217.62 266.72 252.69"/><path class="cls-1" d="M408.43,197.48v16a4.15,4.15,0,0,1-4.15,4.16H76.85a4.15,4.15,0,0,1-4.15-4.16v-16Z"/><rect class="cls-2" x="225.02" y="205.25" width="31.08" height="4.59"/><circle class="cls-2" cx="240.56" cy="207.55" r="6.69"/></g><rect id="FondoOrdenador" class="cls-3" x="85.39" y="7.46" width="310.35" height="182.58"/><rect class="cls-1" y="257.91" width="481.12" height="18.02" rx="5.57"/><rect id="Pulsador" class="cls-4" x="376.47" y="217.62" width="15.78" height="4.9"/><g id="Luces"><circle class="cls-4" cx="388.56" cy="211.35" r="1.16"/><circle class="cls-4" cx="381.41" cy="211.35" r="1.16"/><circle class="cls-4" cx="374.26" cy="211.35" r="1.16"/><circle class="cls-4" cx="367.12" cy="211.35" r="1.16"/></g><rect id="BG_VSCode" class="cls-5" x="85.39" y="7.46" width="150.32" height="182.55"/><g class="cls-6"><text class="cls-7" transform="translate(95.12 21.49)">26</text><text class="cls-7" transform="translate(95.12 35.06)">27</text><text class="cls-7" transform="translate(95.12 48.63)">28</text><text class="cls-7" transform="translate(96.12 62.2)">29</text><text class="cls-7" transform="translate(95.12 75.77)">30</text><text class="cls-7" transform="translate(95.12 89.33)">31</text><text class="cls-7" transform="translate(95.12 102.9)">32</text><text class="cls-7" transform="translate(95.12 116.47)">33</text><text class="cls-7" transform="translate(95.12 130.04)">34</text><text class="cls-7" transform="translate(95.12 143.61)">35</text><text class="cls-7" transform="translate(95.12 157.18)">36</text><text class="cls-7" transform="translate(95.12 170.75)">37</text><text class="cls-7" transform="translate(95.12 184.32)">38</text><rect class="cls-8" x="112.34" y="13.89" width="102.07" height="7.39"/><rect class="cls-9" x="112.34" y="27.46" width="85.21" height="7.39"/><rect class="cls-9" x="112.34" y="41.03" width="85.21" height="7.39"/><rect class="cls-8" x="112.34" y="54.6" width="105.17" height="7.39"/><rect class="cls-8" x="112.34" y="95.31" width="102.07" height="7.39"/><rect class="cls-9" x="112.34" y="108.88" width="78.27" height="7.39"/><rect class="cls-9" x="112.34" y="122.45" width="102.07" height="7.39"/><rect class="cls-8" x="112.34" y="136.02" width="112.45" height="7.39"/><rect class="cls-8" x="112.34" y="163.16" width="102.07" height="7.39"/><rect class="cls-10" x="112.34" y="176.73" width="112.45" height="7.39"/></g><rect class="cls-2" x="236.61" y="14.39" width="160.03" height="175.92"/><rect class="cls-11" x="255.54" y="27.91" width="98.7" height="4.98"/><rect class="cls-11" x="255.54" y="40.25" width="108" height="4.98"/><rect class="cls-11" x="255.54" y="52.59" width="98.7" height="4.98"/><rect class="cls-12" x="255.54" y="76.14" width="122.16" height="58.64" rx="12.58"/><ellipse class="cls-13" cx="280.97" cy="93.62" rx="13.35" ry="12.86"/><rect class="cls-13" x="301.19" y="80.76" width="63.78" height="5.03"/><rect class="cls-13" x="301.19" y="96.82" width="63.78" height="2.51"/><rect class="cls-13" x="301.19" y="104.21" width="63.78" height="2.51"/><rect class="cls-13" x="267.62" y="111.59" width="97.35" height="2.51"/><rect class="cls-13" x="267.62" y="118.98" width="97.35" height="2.51"/><rect class="cls-14" x="259.93" y="150.46" width="116.39" height="39.85"/><rect class="cls-15" x="267.62" y="157.5" width="63.78" height="2.51" transform="translate(599.02 317.52) rotate(-180)"/><rect class="cls-15" x="347.87" y="157.5" width="17.09" height="2.51" transform="translate(712.84 317.52) rotate(-180)"/><rect class="cls-15" x="267.62" y="167.5" width="63.78" height="2.51" transform="translate(599.02 337.52) rotate(-180)"/><rect class="cls-15" x="267.62" y="177.5" width="97.35" height="2.51" transform="translate(632.59 357.52) rotate(-180)"/><rect class="cls-16" x="389.94" y="14.39" width="6.7" height="175.92"/><rect class="cls-2" x="390.99" y="33.89" width="4.47" height="40.17" rx="1.72"/><rect class="cls-2" x="389.94" y="7.69" width="6.7" height="6.7"/><rect class="cls-2" x="383.24" y="7.69" width="6.7" height="6.7"/><rect class="cls-2" x="376.54" y="7.69" width="6.7" height="6.7"/><rect class="cls-16" x="377.83" y="10.82" width="4.12" height="0.46"/><rect class="cls-16" x="391.23" y="10.82" width="4.12" height="0.46" transform="translate(123 -274.86) rotate(45)"/><rect class="cls-16" x="391.23" y="10.82" width="4.12" height="0.46" transform="translate(107.38 281.33) rotate(-45)"/><path class="cls-16" d="M384.31,10.22v2.91h3.5V10.22Zm3.06,2.55h-2.62V10.58h2.62Z"/><path class="cls-16" d="M385.36,9v1.62h.44V9.4h2.63V12h-1.06v.43h1.5V9Z"/><rect class="cls-16" x="236.61" y="7.69" width="139.93" height="6.7"/></g></g></svg>