<svg xmlns="http://www.w3.org/2000/svg" viewBox="0 0 130.69 77.46"><defs><style>.cls-1{fill:#1c5faa;stroke:#000;stroke-miterlimit:10;stroke-width:0.5px;}</style></defs><g id="Capa_2" data-name="Capa 2"><g id="Capa_1-2" data-name="Capa 1"><path class="cls-1" d="M127.77,71.89l-1.7,1.69a12.28,12.28,0,0,1-17.39,0L65.36,30.26,22,73.61a12.29,12.29,0,0,1-17.38,0l-1.7-1.7A9.16,9.16,0,0,1,2.93,59L53.81,8.09,59,2.93A9.09,9.09,0,0,1,66.71.34l.3,0A9.06,9.06,0,0,1,71.73,2.9l5,5,51,51A9.16,9.16,0,0,1,127.77,71.89Z"/></g></g></svg>