<svg xmlns="http://www.w3.org/2000/svg" xmlns:xlink="http://www.w3.org/1999/xlink" viewBox="0 0 130.19 76.96"><defs><style>.cls-1{fill:url(#Degradado_sin_nombre_26);}</style><linearGradient id="Degradado_sin_nombre_26" x1="121.1" y1="55.9" x2="9.46" y2="32.23" gradientUnits="userSpaceOnUse"><stop offset="0" stop-color="#0074bc"/><stop offset="1" stop-color="#2c52a0"/></linearGradient></defs><g id="Capa_2" data-name="Capa 2"><g id="Capa_1-2" data-name="Capa 1"><path class="cls-1" d="M127.52,71.64l-1.7,1.69a12.28,12.28,0,0,1-17.39,0L65.11,30,21.76,73.36a12.29,12.29,0,0,1-17.38,0l-1.7-1.7a9.16,9.16,0,0,1,0-12.94L53.56,7.84l5.16-5.16A9.09,9.09,0,0,1,66.46.09l.3.05a9.06,9.06,0,0,1,4.72,2.51l5,5,51,51A9.16,9.16,0,0,1,127.52,71.64Z"/></g></g></svg>